<svg width="24" height="24" viewBox="0 0 24 24" fill="none" xmlns="http://www.w3.org/2000/svg">
<path d="M12.6225 1.5C12.3652 1.4999 12.1182 1.60153 11.9355 1.78275L11.9257 1.79025L5.49225 5.505L11.9092 11.9175V11.9213L19.6215 19.629L21.0915 16.9823L15.7905 4.26225L13.3162 1.7895C13.2253 1.69756 13.1171 1.62461 12.9977 1.57491C12.8783 1.52521 12.7503 1.49975 12.621 1.5H12.6225Z" fill="#4FC3F7"/>
<path d="M5.50724 5.48999L1.79099 11.9137L1.78349 11.9235C1.69327 12.014 1.62178 12.1215 1.5731 12.2396C1.52442 12.3578 1.49951 12.4844 1.49979 12.6122C1.50007 12.74 1.52553 12.8666 1.57472 12.9845C1.62392 13.1025 1.69588 13.2096 1.78649 13.2997L1.79024 13.3035L4.86974 16.3837L16.9177 21.1192L19.6417 19.608L19.5682 19.5345L19.5495 19.536L11.9962 11.9775H11.9872L5.50724 5.48999Z" fill="#01579B"/>
<path d="M5.49075 5.49304L12.0555 12.0593H12.0653L19.62 19.617L22.4963 19.0695L22.5 10.5668L19.4633 7.59304C18.7066 6.91756 17.758 6.49493 16.7498 6.38404L16.7513 6.35179L5.49225 5.49379L5.49075 5.49304Z" fill="#01579B"/>
<path d="M5.49899 5.50122L12.0675 12.0637V12.0735L19.6267 19.6267L19.077 22.5H10.5675L7.59224 19.464C6.91703 18.7072 6.49467 17.7586 6.38399 16.7505L6.35024 16.7535L5.49899 5.50122Z" fill="#64B5F6"/>
</svg>
