<svg width="24" height="24" viewBox="0 0 24 24" fill="none" xmlns="http://www.w3.org/2000/svg">
<g clip-path="url(#clip0_25_13)">
<path d="M3.27637 19.3642L6.23043 0.461565C6.24812 0.348598 6.30086 0.244044 6.38119 0.162671C6.46152 0.081298 6.56539 0.0272185 6.67812 0.00807107C6.79085 -0.0110764 6.90674 0.00567582 7.00944 0.0559616C7.11213 0.106247 7.19643 0.187525 7.25043 0.288315L10.3056 5.98644L11.5232 3.66782C11.5695 3.57987 11.6389 3.50623 11.724 3.45487C11.8091 3.4035 11.9066 3.37635 12.006 3.37635C12.1054 3.37635 12.2029 3.4035 12.288 3.45487C12.3731 3.50623 12.4425 3.57987 12.4888 3.66782L20.7332 19.3642H3.27637Z" fill="#FFA000"/>
<path d="M13.4818 12.0009L10.3041 5.98364L3.27637 19.3642L13.4818 12.0009Z" fill="#F57C00"/>
<path d="M20.7332 19.3643L18.4706 5.36331C18.4539 5.26461 18.4103 5.17242 18.3447 5.09682C18.2791 5.02122 18.194 4.96513 18.0986 4.93468C18.0033 4.90431 17.9014 4.90074 17.8042 4.92435C17.707 4.94796 17.6181 4.99785 17.5474 5.06856L3.27637 19.3641L11.1729 23.7925C11.4168 23.9286 11.6915 24.0001 11.9707 24.0001C12.25 24.0001 12.5247 23.9286 12.7686 23.7925L20.7332 19.3643Z" fill="#FFCA28"/>
<path d="M18.4706 5.36322C18.4539 5.26452 18.4104 5.17233 18.3447 5.09673C18.2791 5.02113 18.194 4.96504 18.0986 4.93459C18.0033 4.9042 17.9015 4.90059 17.8043 4.92417C17.707 4.94775 17.6182 4.9976 17.5474 5.06828L14.7148 7.90834L12.4875 3.66784C12.4412 3.57989 12.3718 3.50626 12.2867 3.45489C12.2016 3.40353 12.1041 3.37638 12.0047 3.37638C11.9053 3.37638 11.8078 3.40353 11.7227 3.45489C11.6376 3.50626 11.5682 3.57989 11.5219 3.66784L10.3043 5.98628L7.24913 0.288343C7.19506 0.187414 7.11061 0.106051 7.00774 0.055777C6.90487 0.00550261 6.78879 -0.0111359 6.67594 0.00821767C6.56317 0.0275659 6.45933 0.0818783 6.37911 0.163474C6.2989 0.245069 6.24636 0.349818 6.22894 0.462905L3.27638 19.3642H3.26682L3.27619 19.3751L3.354 19.4133L17.5433 5.20759C17.614 5.13652 17.703 5.08632 17.8004 5.06252C17.8979 5.03872 18 5.04223 18.0955 5.07267C18.1911 5.10311 18.2764 5.1593 18.3421 5.23507C18.4078 5.31083 18.4514 5.40325 18.468 5.50215L20.7114 19.3777L20.7332 19.364L18.4706 5.36322ZM3.30225 19.3383L6.23025 0.596593C6.24765 0.483445 6.3002 0.378635 6.38045 0.297C6.46071 0.215365 6.56461 0.161041 6.67744 0.141718C6.79031 0.12238 6.90641 0.139047 7.00928 0.189356C7.11215 0.239665 7.19659 0.321067 7.25063 0.42203L10.3054 6.12015L11.5232 3.80153C11.5695 3.71358 11.6389 3.63995 11.724 3.58858C11.8091 3.53722 11.9066 3.51007 12.006 3.51007C12.1054 3.51007 12.2029 3.53722 12.288 3.58858C12.3731 3.63995 12.4425 3.71358 12.4888 3.80153L14.6709 7.95184L3.30188 19.3383H3.30225Z" fill="white" fill-opacity="0.2"/>
<path opacity="0.2" d="M12.7686 23.6587C12.5247 23.7948 12.25 23.8663 11.9708 23.8663C11.6915 23.8663 11.4168 23.7948 11.1729 23.6587L3.29513 19.2431L3.276 19.3644L11.1726 23.7913C11.4164 23.9274 11.6911 23.9989 11.9704 23.9989C12.2497 23.9989 12.5243 23.9274 12.7682 23.7913L20.7332 19.3644L20.7126 19.2388L12.7682 23.6591L12.7686 23.6587Z" fill="#A52714"/>
</g>
<defs>
<clipPath id="clip0_25_13">
<rect width="24" height="24" fill="white"/>
</clipPath>
</defs>
</svg>
