<svg width="67" height="67" viewBox="0 0 67 67" fill="none" xmlns="http://www.w3.org/2000/svg">
<path d="M19.6087 6.44875C21.7061 7.15653 23.7008 8.13839 25.541 9.36883C28.1415 8.70322 30.8157 8.36929 33.5 8.375C36.2721 8.375 38.9466 8.72117 41.4535 9.36604C43.2929 8.13679 45.2866 7.15588 47.383 6.44875C49.3288 5.78712 52.1009 4.71512 53.748 6.53808C54.8646 7.77758 55.1438 9.85458 55.342 11.4403C55.5653 13.2102 55.6184 15.5161 55.0321 17.8052C57.2738 20.7002 58.625 24.1535 58.625 27.9167C58.625 33.6173 55.5374 38.5669 50.9675 41.995C48.7671 43.6224 46.3281 44.8993 43.7371 45.7805C44.3345 47.1485 44.6667 48.6615 44.6667 50.25V58.625C44.6667 59.3654 44.3726 60.0755 43.849 60.599C43.3255 61.1225 42.6154 61.4167 41.875 61.4167H25.125C24.3846 61.4167 23.6745 61.1225 23.151 60.599C22.6275 60.0755 22.3333 59.3654 22.3333 58.625V55.8585C19.6673 56.1851 17.4312 55.8947 15.5301 55.088C13.5424 54.2449 12.1577 52.9384 11.1164 51.6877C10.1282 50.504 9.05059 47.8352 7.49284 47.316C7.14493 47.2001 6.82325 47.0169 6.54615 46.7767C6.26906 46.5365 6.04198 46.2441 5.87789 45.9162C5.54649 45.2539 5.49175 44.4871 5.72572 43.7845C5.95968 43.0819 6.46319 42.5009 7.12546 42.1695C7.78774 41.8381 8.55454 41.7834 9.25718 42.0174C11.1164 42.6371 12.328 43.9771 13.1571 45.0547C14.4971 46.7855 15.5859 49.0468 17.7076 49.9485C18.5813 50.3198 19.8627 50.5627 21.8671 50.2891L22.3333 50.1942C22.3398 48.675 22.6561 47.1732 23.263 45.7805C20.6719 44.8993 18.2329 43.6224 16.0326 41.995C11.4626 38.5669 8.37501 33.62 8.37501 27.9167C8.37501 24.1591 9.72338 20.7086 11.9595 17.8164C11.3733 15.5273 11.4235 13.2158 11.6468 11.443L11.6608 11.337C11.8646 9.71221 12.1019 7.79992 13.2409 6.53808C14.888 4.71512 17.6629 5.78992 19.6059 6.45154L19.6087 6.44875Z" fill="black"/>
</svg>
